<svg fill="#51A7F9" xmlns="http://www.w3.org/2000/svg" xmlns:xlink="http://www.w3.org/1999/xlink" version="1.1" x="0px" y="0px" viewBox="0 0 100 100" style="enable-background:new 0 0 100 100;" xml:space="preserve"><style type="text/css">
	.st0{fill:none;stroke:#51A7F9;stroke-width:1.5;stroke-linecap:round;stroke-linejoin:round;stroke-miterlimit:10;}
	.st1{fill:none;stroke:#51A7F9;stroke-width:1.5;stroke-miterlimit:10;}
</style><g><rect x="19.0703125" y="75.3876953" width="8.0566406" height="6.3959961"></rect><rect x="19.0703125" y="67.4921875" width="8.0566406" height="6.3955078"></rect><rect x="19.0703125" y="83.2836914" width="8.0566406" height="6.3959961"></rect><rect x="28.6269531" y="83.2836914" width="8.0566406" height="6.3959961"></rect><rect x="19.0703125" y="59.5961914" width="8.0566406" height="6.3959961"></rect><rect x="28.6269531" y="75.3876953" width="8.0566406" height="6.3959961"></rect><rect x="47.7402344" y="83.2836914" width="8.0566406" height="6.3959961"></rect><path d="M63.4584961,64.2084961C63.4584961,56.7875977,57.4208984,50.75,50,50.75s-13.4584961,6.0375977-13.4584961,13.4584961   S42.5791016,77.6665039,50,77.6665039S63.4584961,71.6293945,63.4584961,64.2084961z M49.2451172,76.199707v-2.4113159   c-2.5096436-0.3694458-4.4482422-2.5161133-4.4482422-5.12677c0-0.4140625,0.3359375-0.75,0.75-0.75s0.75,0.3359375,0.75,0.75   c0,2.0358887,1.6517334,3.6914673,3.6853638,3.701355c0.0045166-0.000061,0.0083008-0.0026245,0.0128784-0.0026245   c0.0057373,0,0.010437,0.0031128,0.0161133,0.0032349c2.0366821-0.0062256,3.6918945-1.6638184,3.6918945-3.7019653   c0-2.0419922-1.6611328-3.703125-3.703125-3.703125c-2.8691406,0-5.203125-2.3339844-5.203125-5.203125   c0-2.6106567,1.9385986-4.7577515,4.4482422-5.1272583v-2.4137573c0-0.4140625,0.3359375-0.75,0.75-0.75s0.75,0.3359375,0.75,0.75   v2.4127197c2.5142822,0.3653564,4.4580078,2.5143433,4.4580078,5.1282959c0,0.4140625-0.3359375,0.75-0.75,0.75   s-0.75-0.3359375-0.75-0.75c0-2.0403442-1.6585693-3.7004395-3.6983032-3.703125   c-0.003418,0.000061-0.0062866,0.0019531-0.0097046,0.0019531c-0.0022583,0-0.0041504-0.0012817-0.0064087-0.0012817   c-2.0368042,0.0063477-3.6918335,1.6643066-3.6918335,3.7024536c0,2.0419922,1.6611328,3.703125,3.703125,3.703125   c2.8691406,0,5.203125,2.3339844,5.203125,5.203125c0,2.6139526-1.9437256,4.7625122-4.4580078,5.1278076v2.4102783   c0,0.4140625-0.3359375,0.75-0.75,0.75S49.2451172,76.6137695,49.2451172,76.199707z"></path><path d="M44.203125,26.2641621c0,3.1962891,2.6005859,5.7968731,5.796875,5.7968731s5.796875-2.600584,5.796875-5.7968731   S53.1962891,20.4677753,50,20.4677753S44.203125,23.067873,44.203125,26.2641621z"></path><path d="M16.71875,43.5322266h66.5625v-4.5541992h-66.5625V43.5322266z M76.4584961,40.5053711h4.25   c0.4140625,0,0.75,0.3359375,0.75,0.75s-0.3359375,0.75-0.75,0.75h-4.25c-0.4140625,0-0.75-0.3359375-0.75-0.75   S76.0444336,40.5053711,76.4584961,40.5053711z M68.2915039,40.5053711h4.25c0.4140625,0,0.75,0.3359375,0.75,0.75   s-0.3359375,0.75-0.75,0.75h-4.25c-0.4140625,0-0.75-0.3359375-0.75-0.75S67.8774414,40.5053711,68.2915039,40.5053711z    M60.125,40.5053711h4.25c0.4140625,0,0.75,0.3359375,0.75,0.75s-0.3359375,0.75-0.75,0.75h-4.25   c-0.4140625,0-0.75-0.3359375-0.75-0.75S59.7109375,40.5053711,60.125,40.5053711z M51.9584961,40.5053711h4.25   c0.4140625,0,0.75,0.3359375,0.75,0.75s-0.3359375,0.75-0.75,0.75h-4.25c-0.4140625,0-0.75-0.3359375-0.75-0.75   S51.5444336,40.5053711,51.9584961,40.5053711z M43.7915039,40.5053711h4.25c0.4140625,0,0.75,0.3359375,0.75,0.75   s-0.3359375,0.75-0.75,0.75h-4.25c-0.4140625,0-0.75-0.3359375-0.75-0.75S43.3774414,40.5053711,43.7915039,40.5053711z    M35.625,40.5053711h4.25c0.4140625,0,0.75,0.3359375,0.75,0.75s-0.3359375,0.75-0.75,0.75h-4.25   c-0.4140625,0-0.75-0.3359375-0.75-0.75S35.2109375,40.5053711,35.625,40.5053711z M27.4584961,40.5053711h4.25   c0.4140625,0,0.75,0.3359375,0.75,0.75s-0.3359375,0.75-0.75,0.75h-4.25c-0.4140625,0-0.75-0.3359375-0.75-0.75   S27.0444336,40.5053711,27.4584961,40.5053711z M19.2915039,40.5053711h4.25c0.4140625,0,0.75,0.3359375,0.75,0.75   s-0.3359375,0.75-0.75,0.75h-4.25c-0.4140625,0-0.75-0.3359375-0.75-0.75S18.8774414,40.5053711,19.2915039,40.5053711z"></path><path d="M13.0234375,34.262207v3.2158203H15.96875h68.0625h2.9453125V34.262207L50,10.4624043L13.0234375,34.262207z    M57.296875,26.2641621c0,4.0234375-3.2734375,7.2968731-7.296875,7.2968731s-7.296875-3.2734356-7.296875-7.2968731   S45.9765625,18.9677753,50,18.9677753S57.296875,22.2407246,57.296875,26.2641621z"></path><path d="M19.0703125,58.0961914h8.8066406c0.4140625,0,0.75,0.3359375,0.75,0.75v7.1459961h6.531189   c-0.0700684-0.5860596-0.1166382-1.1790771-0.1166382-1.7836914C35.0415039,55.9604492,41.7519531,49.25,50,49.25   s14.9584961,6.7104492,14.9584961,14.9584961S58.2480469,79.1665039,50,79.1665039   c-0.7700195,0-1.520752-0.0767822-2.2597656-0.1895142v2.8067017h8.8066406c0.4140625,0,0.75,0.3359375,0.75,0.75v7.1459961   h23.6328125V45.0322266h-61.859375V58.0961914z"></path><path d="M38.1835938,75.3876953v6.3959961h8.0566406v-3.114624c-2.3135376-0.6022949-4.4071045-1.7404175-6.1445313-3.2813721   H38.1835938z"></path><path d="M28.6269531,67.4921875v6.3955078h8.0566406v-2.8991699c-0.5601807-1.0955811-0.9903564-2.2661743-1.267334-3.4963379   H28.6269531z"></path><rect x="38.1835938" y="83.2836914" width="8.0566406" height="6.3959961"></rect><path d="M38.1835938,73.8876953h0.4324951c-0.1498413-0.1759644-0.2907715-0.3586426-0.4324951-0.5414429V73.8876953z"></path></g></svg>