<svg fill="#B36AE2" xmlns:dc="http://purl.org/dc/elements/1.1/" xmlns:cc="http://creativecommons.org/ns#" xmlns:rdf="http://www.w3.org/1999/02/22-rdf-syntax-ns#" xmlns:svg="http://www.w3.org/2000/svg" xmlns="http://www.w3.org/2000/svg" xmlns:sodipodi="http://sodipodi.sourceforge.net/DTD/sodipodi-0.dtd" xmlns:inkscape="http://www.inkscape.org/namespaces/inkscape" viewBox="0 0 32 32" version="1.1" x="0px" y="0px"><g transform="translate(0,-1020.3622)"><path style="color:#000000;font-style:normal;font-variant:normal;font-weight:normal;font-stretch:normal;font-size:medium;line-height:normal;font-family:sans-serif;text-indent:0;text-align:start;text-decoration:none;text-decoration-line:none;text-decoration-style:solid;text-decoration-color:#000000;letter-spacing:normal;word-spacing:normal;text-transform:none;direction:ltr;block-progression:tb;writing-mode:lr-tb;baseline-shift:baseline;text-anchor:start;white-space:normal;clip-rule:nonzero;display:inline;overflow:visible;visibility:visible;opacity:1;isolation:auto;mix-blend-mode:normal;color-interpolation:sRGB;color-interpolation-filters:linearRGB;solid-color:#000000;solid-opacity:1;fill:#B36AE2;fill-opacity:1;fill-rule:evenodd;stroke:none;stroke-width:1px;stroke-linecap:butt;stroke-linejoin:round;stroke-miterlimit:4;stroke-dasharray:none;stroke-dashoffset:0;stroke-opacity:1;color-rendering:auto;image-rendering:auto;shape-rendering:auto;text-rendering:auto;enable-background:accumulate" d="M 13.328125 3.2226562 L 3 14 L 23.65625 14 L 13.328125 3.2226562 z M 20 7.5 L 20 9.0019531 L 22 10.982422 L 22 7.5 L 20 7.5 z M 4.328125 15 L 4.328125 28 L 11.328125 28 L 11.328125 19.5 C 11.328155 19.2238 11.551995 19 11.828125 19 L 15.828125 19 C 16.104255 19 16.328095 19.2238 16.328125 19.5 L 16.328125 28 L 18.353516 28 C 17.706076 26.9878 17.326172 25.7886 17.326172 24.5 C 17.326172 21.4307 19.457595 18.849981 22.328125 18.175781 L 22.328125 15 L 4.328125 15 z M 23.810547 19 C 20.760367 19 18.326172 21.4571 18.326172 24.5 C 18.326172 27.5441 20.760357 30 23.810547 30 C 26.859737 30 29.328125 27.5406 29.328125 24.5 C 29.328125 21.4609 26.859727 19 23.810547 19 z M 23.333984 20 L 24.333984 20 L 24.333984 21.048828 C 24.827764 21.169828 25.284813 21.443566 25.601562 21.884766 C 25.832252 22.203266 25.964891 22.589487 25.962891 22.992188 L 24.962891 22.992188 C 24.963601 22.814388 24.902299 22.625309 24.792969 22.474609 L 24.791016 22.474609 C 24.418056 21.954109 23.505141 21.848575 22.988281 22.234375 L 22.974609 22.244141 C 22.671719 22.455341 22.500906 22.894416 22.603516 23.228516 L 22.607422 23.238281 C 22.733372 23.680981 23.267226 24.013906 23.759766 24.003906 L 23.771484 24.003906 L 23.876953 24.003906 C 24.795903 23.987006 25.730349 24.535734 26.005859 25.490234 C 26.248149 26.285534 25.907203 27.118272 25.257812 27.576172 C 24.980333 27.781672 24.662024 27.907656 24.333984 27.972656 L 24.333984 29 L 23.333984 29 L 23.333984 27.951172 C 22.834934 27.833272 22.372564 27.562187 22.052734 27.117188 C 21.821964 26.798488 21.690406 26.414019 21.691406 26.011719 L 22.691406 26.011719 C 22.690796 26.189919 22.754071 26.378797 22.863281 26.529297 C 23.236291 27.049797 24.149076 27.155331 24.666016 26.769531 L 24.679688 26.759766 C 24.982787 26.548366 25.153441 26.109691 25.050781 25.775391 L 25.046875 25.765625 C 24.920955 25.322925 24.389074 24.99 23.896484 25 L 23.884766 25 L 23.777344 25 C 22.858344 25.0169 21.923958 24.468072 21.648438 23.513672 C 21.406168 22.718372 21.746944 21.885634 22.396484 21.427734 C 22.678094 21.218834 23.001084 21.089391 23.333984 21.025391 L 23.333984 20 z " transform="translate(0,1020.3622)"></path></g></svg>